# xmcd
#
# Track frame offsets: 
#        150
#        12221
#        22862
#        37493
#        50230
#        65169
#        77628
#        89729
#        102514
#        116001
#        128730
#        142394
#        155526
#        168363
#
# Disc length: 2430 seconds
#
# Revision: 0
# Processed by: cddbd v1.5.2PL0 Copyright (c) Steve Scherf et al.
# Submitted via: ExactAudioCopy v1.0b3
#
DISCID=ce097c0e
DTITLE=Willie Dixon - 03 - Pain in My Heart
DYEAR=1954
DGENRE=Blues
TTITLE0=Little Walter - My Babe
TTITLE1=The Big Three - Violent Love
TTITLE2=Eddie Boyd - Third Degree
TTITLE3=Willie Mabon - Crazy for My BAby
TTITLE4=Pain in My Heart
TTITLE5=Muddy Waters - (I'm Your) Hoochie Coochie Man
TTITLE6=Little Walter - Mellow Down Easy
TTITLE7=Jimmy Witherspoon - When the Ligths Go Out
TTITLE8=Muddy Waters - Young Fashioned Ways
TTITLE9=Bo Diddley - Pretty Thing
TTITLE10=Muddy Waters - I'm Ready
TTITLE11=Lowell Fulson - Do Me Right
TTITLE12=Muddy Waters - I Just Want to Make Love to You
TTITLE13=Lowell Fulson - Tollin' Bells
EXTD=
EXTT0=
EXTT1=
EXTT2=
EXTT3=
EXTT4=
EXTT5=
EXTT6=
EXTT7=
EXTT8=
EXTT9=
EXTT10=
EXTT11=
EXTT12=
EXTT13=
PLAYORDER=
